<?xml version="1.0" encoding="UTF-8"?><svg id="Layer_1" xmlns="http://www.w3.org/2000/svg" viewBox="0 0 472.34 358.57"><defs><style>.cls-1{fill:#010101;}.cls-1,.cls-2,.cls-3,.cls-4{stroke-width:0px;}.cls-2{fill:#d7e1e4;}.cls-3,.cls-5{fill:#ec2229;}.cls-4{fill:#231f20;}.cls-5{stroke:#231f20;stroke-width:8px;}</style></defs><path class="cls-1" d="M273.32,126.53c-.99-.84-1.94-1.09-3.22-.37-1.11.62-2.47.8-3.68,1.26-.51.19-.93.61-1.56,1.04.67.62,1.11,1.1,1.62,1.51,2.5,2,4.98,4.01,7.53,5.94.82.62,1.36,1.29,1.51,2.33.19,1.32.49,2.62.8,4.2-2.52.33-3.78,2.22-5.26,3.87-.73.82-1.24,1.67-1.15,2.79.1,1.19-.4,1.95-1.5,2.44-.92.41-2,.75-1.94,2.13.08,1.71-.84,3.6.97,4.98.41.31.68.84,1.12,1.08,1.36.73,2.24,1.75,2.66,3.28.15.56.82,1.02,1.34,1.41,1.66,1.25,3.35,2.45,5.5,4-2.33.18-4.15.46-6.02.31-.84-.07-1.69-.08-2.54-.14-.18,0-.38-.08-.52-.19-1.48-1.27-3.23-.94-4.87-.67-1.73.28-3.26.49-5.11.07-2.44-.54-5.13.02-7.71.11-.5.02-1.05.21-1.48.05-3.13-1.17-6.24-2.4-9.36-3.62-.19-.07-.33-.28-.5-.42,2.46-2.12,3.4-4.9,1.91-6.37,1.1-.57,1.8-1.48,2.09-2.75-3.04.53-9.69,4.71-10.84,7.56.81,2.1,2.46,2.28,4.44,1.68.03.15.06.29.09.44-1.54,1.23-3.03,2.54-4.64,3.66-1.01.7-1.9.22-2.39-1.02-.32-.81-.64-1.62-1.04-2.63.22-.61,1.9-.9.87-2.49-1.27.09-2.65.18-4.34.3.31-.59.5-.96.84-1.6-.51-.18-1.13-.63-1.46-.47-1.23.58-2.7.96-3.03,2.66-.09.49-.35,1.03-.7,1.36-1.25,1.2-2.16,2.47-1.19,4.35-.85.51-1.53.92-2.4,1.44.24,3.11-.51,6.06-2.83,8.38,1.56,1.81,2.99,3.47,4.67,5.42-.95.19-1.56.36-2.18.41-1.07.09-2.06.29-2.77,1.2-.48.61-1.08.66-1.8.44-.64-.19-1.33-.21-1.96-.42-2.21-.73-4.22-.06-6.42.78.3.53.54.95.85,1.49-.35.23-.73.49-1.1.74-1.06-.15-1.59-1.76-3.18-.94.23.6.37,1.24.71,1.74,1.14,1.68,1.14,3.23-.59,4.75.96.47,1.73.85,2.51,1.23.06-.07.12-.13.19-.2-.43-.4-.86-.81-1.36-1.28.86-.76,1.56-.11,2.22.2,1.75.82,1.81,1.17.78,3.19h-2.77l.07.06c-.06-.74-.51-.95-1.19-.99-1.33-.08-2.68-.16-3.98-.41-.58-.11-1.49-.58-1.54-.97-.15-1.27-1.18-1.81-1.82-2.65-.67-.89-1.33-1.79-2.11-2.57-.97-.97-1.45-1.97-1.02-3.38,1.17-3.89.22-5.49-3.62-7.36-.71-.35-1.33-.9-1.94-1.42-.91-.77-1.75-1.62-3.04-1.71-.97-.06-1.35-.78-1.72-1.54-.9-1.86-1.82-3.71-2.79-5.7-.73.41-1.29.72-2.03,1.14-.28-1.1-.53-2.08-.84-3.33-1.25.29-2.42.56-3.65.84,0,1.58-.08,2.98.04,4.36.05.5.5,1.11.94,1.41,1.95,1.31,3.11,3.17,3.83,5.32.67,1.99,1.77,3.39,4.03,3.5.28.01.55.2.95.36-.43,1.16.02,1.91,1.02,2.54,1.19.75,2.31,1.63,3.4,2.51.36.29.54.78.81,1.18l.05-.05c-.87-.16-1.75-.31-2.56-.46-1.15,1.35-1.17,3.02-.08,4.99-.72.73-1.45,1.42-2.14,2.16-.57.61-.53,1.88-2.05,1.83.18-.48.27-.8.41-1.1.37-.86,1.22-1.83,1.05-2.55-.43-1.75-.63-3.67-2.26-4.95-3.45-2.71-6.82-5.53-10.27-8.24-1.11-.87-1.9-1.82-2.16-3.24-.14-.8-.42-1.58-.66-2.37-.29-.99-.47-1.96-1.44-2.67-2.8-2.04-2.77-2.09-5.93-.51-1.33.66-2.67,1.31-3.97,2.03-.81.45-1.5.44-2.28-.07-1.06-.69-2.16-1.32-3.26-1.94-2.49-1.4-5.01.08-5.06,2.95-.01.66-.07,1.32-.11,2.15-1.5.36-2.92.78-4.36,1.02-1.6.26-2.96.9-4.09,2.06-.57.58-1.22,1.09-1.83,1.63-1.69,1.5-1.87,2.33-.88,4.61-1.54.55-2.79,1.5-3.31,3.26-1.72-.29-3.11.23-4.24,1.45-.59.64-1.28.6-2.04.27-.96-.41-1.98-.68-2.9-1.14-1.63-.81-3.23-.98-4.93-.24-.46.2-.99.26-1.6.42-.97-1.22-1.31-2.69-1.75-4.06-.44-1.36-1.16-2.1-2.62-2.32-1.3-.2-2.55-.69-3.94-1.09.17-.55.26-.98.42-1.38.98-2.37.96-2.37.87-5.59-.01-.37.18-.87.45-1.12,2.52-2.31,3.45-5.5,4.83-8.46.6-1.29.8-2.51.25-3.85-.16-.39-.16-.84-.28-1.51,1.42-.22,2.72-.49,4.02-.58.42-.03.9.36,1.3.63.66.45,1.21,1.12,1.92,1.41,3.99,1.63,8.01,3.18,12.03,4.75.26.1.56.14,1.15.28,1.42-3.34,2.83-6.67,4.26-10.05-1.52-1.28-1.89-2.84-1.92-4.5-.02-1.1-.55-1.79-1.49-2.28-.66-.34-1.28-.76-1.9-1.17-1.03-.67-1.29-1.62-.78-2.85.08-.2.11-.42.19-.75h3.31c1.03,1.29,2.41,1.9,4.15,1.81.07-1.13.15-2.29.23-3.62,1.2.11,1.89.94,2.65,1.54.87.68,1.68.85,2.64.31.32-.18.67-.34,1.02-.44,1.81-.52,3.29-1.35,3.22-3.7,1.46-.1,2.78-.13,4.08-.31.67-.09,1.74.29,1.76-1.08,0-.13.91-.25,1.42-.39-.94-1.93.64-2.78,1.59-4.17.4.76.69,1.32,1.01,1.93.2,0,.48.09.61,0,.73-.57.72-.58.4-2.32.61-1.02,1.46-1.04,2.48-.64.79.31,1.45.7,2.26-.4.76-1.03,1.68.08,2.5.75.5-.87,1.16-1.46,2.4-.79-.42-1.37-1.68-2.23-.75-3.5.08-.11-.05-.46-.18-.61-.49-.56-.99-1.06-.7-1.93.63-1.87,1.21-3.77,1.85-5.64.08-.22.44-.35.72-.55-.3-.23-.52-.4-.85-.65,1.06-1.32,2.66-1.37,4.49-2.12-.5,1.35-.87,2.33-1.27,3.41.37.42.74.85,1.14,1.32-.14.21-.22.43-.38.55-.52.42-1.08.8-1.61,1.2-1.69,1.28-2.21,4.08-.9,5.73.43.55,1.35.71,2.16,1.11.04.24.1.65.17,1.09.27,0,.48.06.69.03.29-.04.59-.11.86-.21,2.06-.78,3.89-.77,5.21,1.37.21.35.67.54.75.6,1.13-.65,2.01-1.26,2.97-1.68,1.43-.62,2.92-1.09,4.39-1.64.67-.25,1.33-.38,1.82.28,1.25,1.71,2.82.98,4.35.73-.02-1.23.45-1.81,1.42-1.75.01-.11,0-.24.04-.33.76-1.75.59-3.54.53-5.39-.04-1.39.69-2.86,1.33-4.17.3-.61,1.21-.92,1.89-1.4.89,1.01,1.61,1.83,2.38,2.7,2.57-.81,1.31-2.99,1.91-4.63-2-.49-2.42-1.97-2.45-3.77,2.38-2.1,5.22-2.4,8.41-1.78.46-2.21,2.68-1.72,4.02-2.72-1.19-.74-2.31-1.44-3.75-2.34-2.89,1.19-6.17,2.54-9.49,3.91-.57-.51-.45-1.39-1.57-1.56-1.69-.26-1.93-1.13-1.82-2.95.07-1.16.04-2.38-.21-3.51-.86-4.04-1.22-2.58,1.34-5.97,1.61-2.13,3.27-4.22,4.95-6.38-.47-.83-.83-1.57-1.28-2.24-.87-1.29-2.39-1.35-3.77-.43-1.47.99-2.15,2.15-1.68,3.93.13.48.18,1.09,0,1.52-1.13,2.64-3.3,4.34-5.6,5.87-.25.16-.7.02-1.25.02-.38,2.75-.76,5.46-1.15,8.3,1.83.71,2.81,2.12,3.53,4.1-.41.31-.87.67-1.45,1.12.9.88.54,1.58-.46,2-.94.39-1.93.64-2.92.97-1.01,1.7.05,3.56-.43,5.24-.47,1.62-1.16,3.18-1.74,4.74h-2.59c-.49.82-1.02,1.7-1.58,2.63-1.15.03-2.36.41-3.38-1.1-.6.87-1.18,1.71-1.77,2.54-.19-.08-.39-.16-.58-.23-.37-.99-.74-1.99-1.08-2.88.87-1.2,1.76-.71,2.69-.25.6-1.09,1.15-2.1,1.81-3.28-.38-.91-.82-1.93-1.22-2.96-.21-.55-.5-1.13-.5-1.69,0-1.11.28-2.2-.82-3.04-.24-.19-.14-.84-.17-1.29-.06-.95-.11-1.9-.2-3.41-.57.93-.86,1.39-1.22,1.98-1.29-.29-2.26.3-3.15,1.35-.64.76-1.47,1.6-2.37,1.86-1.98.56-3.85-1.34-3.81-3.7.47.02.95.04,1.8.08-.9-.86-.38-2.25-2.04-2.4.51-.6.93-1.08,1.34-1.56,0-.13.06-.32,0-.4-.93-1.09-.54-2.28-.23-3.44.28-1.08,1.32-2,.52-3.31-.12-.2.5-.86.84-1.4.59-.08,1.44-.11,2.22-.35.24-.08.28-.77.45-1.31.53-.04,1.18-.14,1.83-.14,1.07,0,1.78-.27,2.04-1.53.25-1.2.98-1.27,2.12-.68.52.27,1.29.48,1.77.29.46-.18.69-.93,1.11-1.55-1.14-.22-1.8,1.22-2.78.06.98-1.02,1.4-2.84,3.26-2.11.73-1.1,1.41-2.14,2.05-3.11.17-.64.2-1.35.52-1.9.84-1.43,1.8-2.8,2.73-4.18.11-.17.3-.43.45-.42,1.12.06.95-1.01,1.42-1.47.57-.55,1.01-.87.8-1.78-.07-.32.44-.9.82-1.17,1.46-1.01,3.06-1.86,3.26-3.93.02-.21.36-.4.58-.56.2-.14,1.09-.89,1.19-1.11.27.25.52.48.92.84.64-1.28,2.49-1.37,2.78-3.17.61.26,1.2.5,1.99.84.46-1.22.9-2.37,1.34-3.52,1.47-.43,1.45,2.36,3.24,1.14.15-.46.38-1.15.65-1.96,1.51.57,2.9,1.1,4.21,1.6-.09,1.79-1.53,1.34-2.48,1.87.52.75.7,1.8,1.97.99.2-.13.66-.14.82,0,.86.74,1.28-.24,1.96-.48.2.83.6,1.29,1.54,1.17,3.39-.44,6.45.85,9.43,2.12,1.72.73,3.19,2.07,4.68,3.08-.08.51-.08.74-.15.94-.95,2.69-2.84,3.89-5.68,3.6-2.36-.24-4.72-.45-7.09-.66-.04,0-.1.09-.24.22.62,1.07,2.23,1.33,2.43,2.87.04.32,1.29.49,1.95.71-.03,4.65,1.9,5.89,6.72,6.76.17-.6.34-1.22.5-1.81-1-.65-1.9-1.21-2.76-1.83-.1-.07.1-.53.17-.87,1.95-.27,3.79,1.1,5.82.11-.28-.5-.48-1.06-.85-1.48-.92-1.06-.9-2.11-.23-3.27.56-.96,1.04-1.96,1.65-3.11,1.03.27,2.01.53,2.99.79.09-1.47-1.41-5.85-3.1-9.06,1.48.12,2.95-.2,4.25,1.04-.48.79-.92,1.53-1.36,2.26,1.79,1.92,1.83,1.93,3.94.64-.07-.45-.22-.95-.2-1.44.02-.46.06-1.1.35-1.34.59-.49.67-.81.25-1.46-.14-.22.18-.81.4-1.16.48-.75.96-1.53,1.58-2.16.57-.58,1.33-.99,1.97-1.44.53.2,1.15.68,1.59.55.52-.16.94-.8,1.32-1.29.26-.33.29-.96.59-1.11,1.44-.75,2.02-2.06,2.47-3.56.59.14,1.07.26,1.58.39.33-.62.64-1.2.98-1.84-.26-.23-.47-.42-.69-.6-.66-.53-1.91-.6-1.77-1.75.16-1.31,1.48-.97,2.32-1.27,2.5-.88,5.04-1.02,7.66-.44,3.04.68,4.93,2.7,5.7,5.76.62,2.47.23,4.78-.64,6.98-1.06,2.67-.61,4.9.78,7.35,2.77,4.84,5.23,9.86,7.86,14.78.55,1.03.79,1.98.52,3.18-.48,2.16-.76,4.37-1.17,6.79h5.85c.37,1.04.68,1.93,1.02,2.91-1.46,1.64-2.88,3.25-4.43,5.01,2.01,1.08,3.8,2.13,5.66,3.03,1.29.62,2.13,1.5,2.57,2.87.29.91.76,1.77,1.21,2.8,1.74-.13,3.42-.3,5.12-.38,1.69-.09,2.46.94,1.88,2.51-.33.89-.81,1.72-1.2,2.53-1.77.18-4.02-1.75-4.95,1.76v-1.31c-2.25.08-2.69.5-2.21,2.1-.92.18-1.73,1.06-1.78,1.94-1.37-.43-1.43.58-1.5,1.67-.43-.34-.69-.56-.96-.77.68-.15.9-.54.22-.89-.49-.26-1.14-.2-1.2.64v.04ZM213.97,101.99c-.69.93-1.23,1.67-1.83,2.48,1.28,1.62,2.44,3.09,3.84,4.85.99-1.4,1.75-2.48,2.6-3.68-1.6-1.27-2.97-2.35-4.61-3.65h0ZM221.32,97.13c-.09.09-.19.18-.28.27.2.48.41.95.82,1.91-1-.54-1.53-.83-2.06-1.12-.5,1.41-.31,1.92.85,3,.69.65,2.02.83,1.78,2.23.51.07,1.33.36,1.46.18.33-.49.61-1.27.44-1.77-.43-1.24-1.07-2.43-1.74-3.57-.27-.46-.83-.75-1.26-1.12h-.01ZM167,103.31c.78.51,1.35.88,2.02,1.32.27-.3.56-.61,1.21-1.32h-3.23Z"/><path class="cls-5" d="M369.83,198.41c-.48-1.45-.98-2.9-1.49-4.35s-1.03-2.9-1.56-4.35-1.06-2.9-1.6-4.34c-.54-1.45-1.07-2.89-1.6-4.33s-1.05-2.87-1.57-4.29c-.88-.15-1.73-.3-2.55-.47-.83-.17-1.63-.34-2.4-.53-.78-.19-1.53-.39-2.26-.6s-1.43-.44-2.12-.67c-1.2-.42-2.32-.88-3.38-1.38-2.61-1.24-17.55-6.72-22.77-10.13-2.63,64.21-45.36,106.32-116.77,117.92-69.35,11.26-126.9-53.84-126.9-120.25,0-24.9,7.98-48.02,21.66-67.21,12.23-22.9,37.77-40.75,69.49-48.19,4.08-1.13,31.27-8.44,31.27-8.44l-39.84,10.75,85.49-23.06c-.71-.63-1.37-1.21-1.67-1.47-.74-.63-1.49-1.25-2.27-1.87s-1.57-1.24-2.39-1.86c-.82-.61-1.65-1.22-2.51-1.82s-1.73-1.19-2.63-1.77c-.9-.58-1.81-1.15-2.75-1.7-.94-.56-1.9-1.1-2.89-1.62-.99-.52-1.99-1.03-3.03-1.52-1.03-.49-2.09-.96-3.18-1.41-1.09-.45-2.2-.87-3.35-1.28-1.15-.4-2.32-.78-3.53-1.13s-2.45-.68-3.73-.97c-1.28-.3-2.6-.56-3.97-.8-1.36-.24-2.77-.44-4.23-.62-1.46-.17-2.97-.31-4.53-.42-.78-.05-1.58-.1-2.4-.13-.81-.03-1.64-.06-2.49-.08s-1.71-.02-2.6-.02-1.79.02-2.71.04c-.92.02-1.87.05-2.83.08-.96.04-1.95.08-2.96.13-1.01.05-2.05.11-3.1.17s-2.12.13-3.19.21c-1.07.07-2.15.16-3.24.24-1.09.09-2.19.18-3.3.28s-2.22.21-3.35.32-2.26.23-3.4.36c-1.28.55-2.43,1.04-3.52,1.5-1.08.45-2.09.87-3.07,1.28-.98.4-1.94.8-2.93,1.2-.99.4-2,.81-3.1,1.25s-2.28.91-3.6,1.43c-.03,1.72-.08,3.14-.13,4.46s-.11,2.54-.18,3.85-.15,2.7-.26,4.36c-.42.66-.91,1.26-1.49,1.8-.8.75-1.75,1.38-2.85,1.9-1.1.52-2.34.91-3.73,1.18-1.12.22-2.33.33-3.57.35s-2.52-.06-3.78-.21c-1.26-.16-2.52-.39-3.71-.69s-2.3-.72-3.32-1.25-1.97-1.16-2.85-1.88c-.88-.72-1.69-1.54-2.45-2.43s-1.46-1.87-2.12-2.9-1.28-2.13-1.87-3.27c-1.26.49-2.51.98-3.76,1.48-1.25.49-2.5.99-3.75,1.49s-2.5,1.01-3.75,1.52c-1.25.51-2.51,1.03-3.77,1.55-1.26.52-2.52,1.05-3.79,1.58.31.95.59,1.88.82,2.78.24.9.44,1.77.6,2.62.16.85.29,1.67.38,2.48.09.8.14,1.58.15,2.34.02,1.51-.11,2.94-.41,4.28-.29,1.34-.75,2.61-1.37,3.81s-1.4,2.32-2.36,3.38c-.95,1.06-2.08,2.06-3.37,3-.71.52-1.43.99-2.13,1.42-.71.43-1.41.82-2.11,1.17-1.4.69-2.78,1.22-4.13,1.57-1.35.36-2.68.54-3.98.56s-2.57-.13-3.8-.44-2.43-.79-3.58-1.43c-1.16-.64-2.27-1.44-3.34-2.41-.54-.49-1.07-1.01-1.59-1.58l-3.17-.12c-1.29,1.28-2.59,2.56-3.89,3.85-.62.62-1.24,1.23-1.86,1.85-.62.62-1.24,1.24-1.87,1.86s-1.25,1.24-1.87,1.86-1.25,1.24-1.87,1.87l-1.87,1.87c-1.25,1.25-2.5,2.51-3.76,3.77.49.75.95,1.49,1.37,2.24.42.74.81,1.49,1.16,2.23.7,1.48,1.27,2.96,1.68,4.43.41,1.47.67,2.94.77,4.39.1,1.46.05,2.9-.18,4.34-.22,1.44-.61,2.86-1.16,4.27-.56,1.41-1.28,2.8-2.18,4.17-.73,1.11-1.58,2.2-2.51,3.23s-1.9,1.97-2.94,2.86-2.13,1.7-3.24,2.4c-1.23.78-2.48,1.39-3.74,1.84s-2.52.74-3.79.89c-1.27.15-2.54.15-3.81.02-1.27-.13-2.54-.39-3.8-.76s-2.51-.85-3.74-1.42c-.35.74-.7,1.48-1.04,2.23-.34.75-.68,1.49-1.02,2.24s-.67,1.5-1,2.26c-.33.75-.66,1.51-.98,2.27-.32.76-.65,1.52-.96,2.28-.32.76-.63,1.53-.95,2.3-.31.77-.62,1.54-.93,2.31s-.62,1.55-.92,2.32c-.3.78-.61,1.56-.91,2.34s-.6,1.56-.9,2.35c.87.49,1.71.99,2.5,1.51.8.52,1.56,1.06,2.29,1.62.72.56,1.41,1.13,2.06,1.72s1.25,1.2,1.82,1.83,1.09,1.27,1.57,1.94c.48.66.92,1.34,1.32,2.04.79,1.4,1.41,2.86,1.84,4.4.22.77.39,1.55.51,2.35s.2,1.61.22,2.44c.03.83,0,1.67-.07,2.53s-.19,1.73-.36,2.62c-.28,1.44-.7,2.88-1.24,4.29-.54,1.41-1.18,2.79-1.91,4.1-.73,1.3-1.53,2.53-2.38,3.65-.53.69-1.08,1.32-1.66,1.89-.58.57-1.18,1.08-1.81,1.53s-1.27.84-1.94,1.18-1.35.62-2.05.85c-.7.23-1.42.41-2.15.54-.73.13-1.48.21-2.23.24-.76.03-1.52.02-2.3-.04-.77-.06-1.56-.16-2.35-.3-.13,1.59-.27,3.12-.41,4.62-.14,1.5-.29,2.96-.44,4.4-.15,1.44-.29,2.85-.42,4.25-.13,1.4-.26,2.79-.38,4.16s-.25,2.73-.38,4.07c-.14,1.34-.28,2.66-.45,3.96.87.18,1.71.37,2.51.58.81.21,1.58.42,2.33.66.75.23,1.46.48,2.14.74.68.26,1.34.54,1.96.83,1.24.59,2.36,1.24,3.34,1.95.99.72,1.84,1.5,2.58,2.34s1.36,1.76,1.88,2.74c.51.98.92,2.04,1.22,3.17s.49,2.32.59,3.59c.09,1.27.08,2.47-.06,3.62-.13,1.15-.39,2.23-.77,3.27-.38,1.04-.89,2.02-1.53,2.96s-1.41,1.83-2.33,2.68c-.46.42-.95.84-1.47,1.24-.53.4-1.09.79-1.68,1.17-.6.38-1.23.75-1.89,1.1-.67.36-1.37.7-2.11,1.04-.74.33-1.51.66-2.33.97-.81.31-1.66.61-2.54.9.46,1.26.93,2.51,1.4,3.77.47,1.25.95,2.5,1.43,3.75.5,1.31,1.01,2.62,1.52,3.93s1.01,2.62,1.52,3.93c.99.58,1.73,1.01,2.47,1.45.74.43,1.48.86,2.47,1.44.39-.04.78-.08,1.17-.11.77-.06,1.52-.11,2.26-.13.74-.02,1.46-.02,2.16,0,1.41.04,2.75.18,4.02.4,1.27.23,2.47.54,3.61.96,1.13.42,2.19.93,3.18,1.54.98.62,1.89,1.33,2.73,2.16.83.82,1.58,1.75,2.25,2.79.6.93,1.07,1.95,1.42,3.03.36,1.08.6,2.21.74,3.36s.17,2.3.12,3.43c-.06,1.2-.3,2.35-.68,3.45-.39,1.1-.92,2.14-1.59,3.13-.66.99-1.45,1.94-2.33,2.84-.89.9-1.87,1.76-2.93,2.58-1.06.82-2.2,1.6-3.38,2.34.8,1.25,1.56,2.47,2.33,3.66s1.54,2.35,2.3,3.49c.76,1.14,1.52,2.25,2.27,3.35s1.5,2.18,2.25,3.24,1.49,2.11,2.24,3.15c.87-.4,1.73-.77,2.57-1.12s1.66-.67,2.47-.96c.81-.29,1.6-.56,2.37-.8s1.53-.45,2.27-.64c.74-.18,1.46-.34,2.17-.47.71-.13,1.4-.22,2.08-.29,1.35-.14,2.64-.15,3.86-.05s2.38.33,3.48.68,2.13.82,3.1,1.42,1.88,1.32,2.72,2.16c.75.75,1.4,1.6,1.95,2.52.55.92,1.01,1.91,1.37,2.92s.63,2.04.81,3.05c.22,1.24.2,2.47-.02,3.67-.23,1.2-.66,2.38-1.26,3.54-.6,1.16-1.38,2.3-2.29,3.41-.46.56-.95,1.11-1.47,1.66s-1.07,1.09-1.65,1.62c1.02.61,2.02,1.23,3.03,1.84,1,.61,2,1.23,2.99,1.84s1.97,1.23,2.95,1.85c.98.62,1.95,1.24,2.92,1.86s1.94,1.24,2.9,1.87,1.92,1.26,2.88,1.89c.75-.62,1.5-1.21,2.23-1.76s1.46-1.08,2.18-1.57c.72-.49,1.43-.95,2.13-1.38s1.39-.82,2.08-1.19c.69-.36,1.36-.69,2.03-.99.67-.3,1.34-.57,1.99-.8,1.32-.47,2.61-.81,3.87-1.03,1.27-.22,2.51-.3,3.74-.26s2.44.21,3.64.51c1.2.3,2.38.73,3.55,1.29s2.2,1.19,3.11,1.89,1.69,1.48,2.34,2.33c.65.85,1.18,1.77,1.57,2.77s.66,2.07.79,3.22.14,2.37.02,3.67c-.12,1.3-.38,2.67-.76,4.12-.19.73-.42,1.47-.67,2.23-.26.76-.55,1.55-.87,2.35.72.21,1.43.42,2.14.63s1.43.42,2.14.63,1.43.42,2.14.63,1.42.42,2.13.64c.71.21,1.42.43,2.13.64.71.21,1.42.43,2.13.64.71.22,1.41.43,2.12.65s1.41.43,2.12.65c.7.22,1.41.44,2.11.65.7.22,1.4.44,2.1.66.43-.81.87-1.58,1.32-2.32.45-.74.92-1.45,1.39-2.13s.96-1.32,1.46-1.94c.5-.61,1.01-1.2,1.53-1.75s1.05-1.07,1.59-1.56c.54-.49,1.09-.95,1.65-1.38,1.12-.86,2.27-1.59,3.46-2.2,1.19-.61,2.41-1.09,3.66-1.44s2.53-.58,3.83-.68,2.63-.06,3.97.1c1.36.17,2.62.45,3.78.85,1.16.4,2.22.91,3.17,1.54s1.8,1.37,2.54,2.22,1.38,1.81,1.9,2.89c.52,1.07.93,2.25,1.23,3.54s.48,2.68.55,4.19c.02.38.03.76.03,1.15.71.67,1.28,1.21,1.84,1.74.57.53,1.13,1.07,1.84,1.74,1.25-.06,2.49-.13,3.74-.19,1.27-.07,2.53-.13,3.8-.2,1.14-.06,2.27-.12,3.4-.17.47-.1,1.21-.25,1.68-.35.54-.2,1.12-.42,1.72-.65.91-.34,1.85-.7,2.76-1.04.91-.34,1.77-.67,2.53-.95.26-.83.53-1.64.82-2.42.57-1.56,1.2-3,1.88-4.34s1.43-2.57,2.23-3.7c.8-1.12,1.67-2.14,2.6-3.05.93-.91,1.93-1.71,2.99-2.4,1.07-.69,2.2-1.28,3.4-1.76s2.48-.85,3.82-1.12c1.27-.25,2.57-.38,3.87-.41,1.3-.02,2.6.06,3.85.23s2.46.44,3.59.78c1.37.41,2.55,1.02,3.55,1.79,1.01.77,1.84,1.7,2.52,2.77.68,1.07,1.22,2.27,1.63,3.58.41,1.31.69,2.73.87,4.24,1.31-.51,2.6-1.02,3.89-1.53.65-.25,1.29-.51,1.93-.76s1.28-.5,1.92-.75c.64-.25,1.28-.5,1.91-.75.64-.25,1.27-.5,1.91-.75,1.27-.5,2.53-.99,3.79-1.49.64-.25,1.28-.5,1.92-.75.64-.25,1.28-.5,1.91-.75.62-.88,1.24-1.76,1.86-2.63.62-.88,1.24-1.76,1.86-2.63.02-.41.04-.81.07-1.21.11-1.59.31-3.08.6-4.5s.66-2.75,1.13-4.01c.47-1.26,1.03-2.44,1.69-3.56s1.42-2.16,2.28-3.15c.86-.99,1.83-1.91,2.9-2.78.54-.43,1.1-.85,1.68-1.26.59-.41,1.2-.8,1.85-1.18.63-.37,1.25-.72,1.87-1.02.62-.31,1.24-.58,1.85-.82,1.22-.48,2.43-.83,3.63-1.03,1.2-.21,2.39-.28,3.57-.21s2.36.27,3.53.62c1.17.35,2.34.84,3.51,1.47s2.33,1.4,3.5,2.32c.58.46,1.16.95,1.75,1.48.58.53,1.16,1.1,1.74,1.7,1.12-.85,2.25-1.71,3.37-2.56s2.25-1.71,3.39-2.58c.57-.43,1.14-.86,1.71-1.3.57-.43,1.14-.87,1.72-1.31.57-.44,1.15-.87,1.72-1.31s1.15-.88,1.73-1.32c.58-.44,1.16-.88,1.74-1.33.58-.44,1.16-.89,1.75-1.33.58-.45,1.17-.89,1.75-1.34.58-.45,1.17-.9,1.76-1.35-.73-1.49-1.33-2.94-1.82-4.35s-.85-2.79-1.09-4.13c-.24-1.34-.35-2.65-.33-3.94.02-1.28.17-2.54.45-3.78s.7-2.46,1.25-3.66c.55-1.21,1.24-2.4,2.08-3.58.42-.59.87-1.18,1.35-1.77.49-.59,1.01-1.18,1.57-1.77s1.13-1.15,1.7-1.69c.57-.53,1.15-1.03,1.74-1.5.59-.47,1.18-.91,1.78-1.31.6-.41,1.22-.78,1.84-1.13s1.26-.66,1.9-.94,1.3-.54,1.97-.76,1.35-.41,2.05-.58c.7-.16,1.4-.29,2.13-.39s1.46-.17,2.21-.21c.75-.04,1.52-.05,2.31-.02.78.02,1.59.08,2.4.16.82.09,1.65.2,2.5.35s1.72.33,2.6.54,1.79.45,2.7.73c.47-.63.93-1.25,1.4-1.88.46-.63.93-1.26,1.39-1.88.46-.63.93-1.26,1.39-1.89s.92-1.26,1.38-1.89.92-1.26,1.38-1.88c.46-.63.91-1.26,1.37-1.88.45-.63.91-1.25,1.36-1.88s.9-1.25,1.35-1.88.89-1.25,1.34-1.87.88-1.24,1.32-1.86c.88-1.24,1.74-2.47,2.6-3.7-.74-.36-1.44-.74-2.14-1.13-.7-.39-1.37-.81-2.01-1.23-.64-.43-1.25-.88-1.84-1.34-.58-.46-1.14-.94-1.66-1.44-1.05-.99-1.98-2.05-2.78-3.16-.81-1.11-1.5-2.28-2.07-3.5-.57-1.22-1.03-2.49-1.36-3.81s-.56-2.68-.67-4.08-.11-2.84,0-4.31c.12-1.52.32-2.95.63-4.29s.72-2.58,1.24-3.72c.52-1.14,1.16-2.18,1.93-3.11.76-.93,1.65-1.75,2.68-2.45s2.19-1.29,3.51-1.75c.66-.23,1.36-.43,2.09-.59.74-.16,1.51-.3,2.33-.39.82-.1,1.68-.16,2.58-.18.9-.03,1.85-.01,2.84.04-.44-1.44-.9-2.89-1.38-4.34v-.06Z"/><path class="cls-4" d="M350.74,165.58s21.48,17.96,15.37,46.74c0,0,70.85-34.96,102.96-51.28,0,0-111.23,3.34-118.33,4.54h0Z"/><path class="cls-4" d="M351.08,165.68c.2-.05.08-.22.2-.09,2.36,2.05,4.42,4.39,6.36,6.83,8.07,10.31,12.16,23.89,10.28,36.92l-.46,3.27-1.96-1.52c33.03-17.26,69.19-35.73,102.1-52.92l1.56,6.1c-36.93,2.14-74,2.34-110.99,1.69-2.05-.03-5.09,0-7.09-.28h0ZM350.4,165.49c2.44-.82,5.14-1.04,7.67-1.39,7.36-.92,14.76-1.62,22.15-2.27,19.69-1.63,39.4-2.86,59.14-3.51,9.92-.32,19.84-.42,29.77-.51,3.37-.03,4.5,4.64,1.4,6.1-25.01,11.87-52.73,25.23-77.84,37.27l-25.97,12.37c-.69.33-1.52.04-1.85-.66-.13-.28-.16-.58-.11-.87.28-1.87.89-4.33.99-6.18,1.26-11.57-2.32-23.32-9.01-32.77-1.79-2.47-3.71-4.86-5.93-6.97-.03-.03-.13-.11-.23-.25-.09-.13-.14-.27-.17-.38h0v.02Z"/><path class="cls-3" d="M317.45,218s-20.57-19.1-13.03-47.46c0,0-72.58,30.98-105.5,45.49,0,0,111.37,2.78,118.53,1.97h0Z"/><path class="cls-4" d="M317.12,217.89c-.2.04-.09.22-.21.08-2.25-2.17-4.19-4.61-6-7.15-7.54-10.71-10.98-24.47-8.44-37.39l.62-3.25,1.87,1.62-26.17,11.83c-25.37,11.42-53.38,23.88-78.57,35.34l-1.22-6.17c37.04-.11,74.11,1.73,111.05,4.41,2.05.14,5.09.27,7.07.67h0ZM317.78,218.11c-2.48.68-5.2.75-7.74.97-7.41.52-14.84.8-22.26,1.05-19.77.54-39.55.68-59.32.25-9.93-.23-19.86-.67-29.79-1.13-3.36-.16-4.23-4.88-1.06-6.17,34.32-14.04,71.81-29.72,106.26-43.81,1.01-.45,2.17.56,1.87,1.62-.38,1.86-1.11,4.28-1.3,6.13-1.83,11.49,1.17,23.41,7.39,33.18,1.67,2.56,3.47,5.04,5.57,7.26.02.03.13.12.22.26.08.13.13.28.15.39h0Z"/><path class="cls-2" d="M301.75,175.63s.08-1.19.49-2.91c.83-3.44,3-9.02,8.59-11.47,8.38-3.69,23.78-13.69,32.66-7.25s29.53,18.92,26.39,52.03c0,0-25.09,35.73-48.04,17.8,0,0-19.05-18.11-20.62-27.87-1.58-9.77.53-20.32.53-20.32h0Z"/><path class="cls-4" d="M301,175.53c.68-4.84,2.63-9.74,6.4-13.04,1.86-1.63,4.17-2.52,6.28-3.78,2.06-1.2,4.11-2.45,6.23-3.65,6.79-3.77,14.36-7.97,22.53-5.45,1.36.42,2.72,1.26,3.92,2.03,5.26,3.31,10.35,6.86,14.84,11.48,11.72,11.86,15.57,27.15,14.68,43.47-.01,1.11-.45,2.06-1.07,2.9-.67,1.12-1.63,2.24-2.34,3.28-7.41,9.54-16.18,18.82-28.27,22.6-9.37,3.01-19.76.62-27.16-5.88-6.97-7.32-12.42-15.44-16.38-24.85-.92-2.42-1.83-4.82-2.06-7.8-.14-2.61.05-4.96.24-7.37.45-4.76,1.18-9.43,2.16-13.94h0ZM302.49,175.73c-.86,6.26-.67,12.54,1.01,18.57.27.95.63,1.87,1.12,2.71,3.2,5,7.81,8.74,12.3,12.76l10.03,8.69-.54-.47c1.51.92,2.97,1.76,4.44,2.24,12.32,3.95,26.6-8.54,34.09-17.66l-1.07,2.9c1.04-8.58.72-17.38-2.63-25.4-3.24-8.25-9.21-14.84-16.27-20.36-.8-.63-3.22-2.57-4-3.18-5.55-3.65-13.53-.64-19.71,1.43-2.21.84-4.42,1.75-6.64,2.67-2.1.96-4.44,1.56-6.3,3-3.68,2.81-5.49,7.56-5.84,12.1h.01Z"/><path class="cls-4" d="M324.46,181.88c.26-1.42.82-3.08,2.18-4.07.74-.47,1.93-1.5,2.6-2.1,1.63-1.63,5.04-3.27,7.72-1.63,3.46,1.52,6.57,3.95,8.57,7.33,1.75,2.89,2.5,6.25,2.7,9.39.05.82-.15,1.6-.53,2.26-3.07,5.72-7.35,11.29-14.78,10.6-2.93-.3-5.52-1.81-7.57-3.86-2.53-3.54-2.89-7.78-2.72-12.18.54-1.88,1.4-3.99,1.83-5.72h0v-.02ZM325.96,182.01c0,1.71.71,3.43,2.02,4.56,2.59.37,5.72,1.17,7.99,2.58l-.49-.45c.2-.2-.12-.49-.82-.58-.66-.08-1.05.27-.81.41.66.39,2.28-.53,2.95-1.07.13-.09.33-.3.34-.24l-.97,3.01c1.02-3.85,0-7.3-2.9-10.35-.09-.12-.26-.3-.16-.26.18-.06.34-.26.14-.46-1.06-.94-3.95-.45-5.47-.05-1.33.16-1.93,1.52-1.82,2.89h0Z"/></svg>